<?xml version="1.0" encoding="utf-8"?>
<!DOCTYPE svg PUBLIC "-//W3C//DTD SVG 1.0//EN" "http://www.w3.org/TR/2001/REC-SVG-20010904/DTD/svg10.dtd">
<svg version="1.0" xmlns="http://www.w3.org/2000/svg" width="512px" height="512px" viewBox="300 250 800 620" preserveAspectRatio="xMidYMid meet">
 <g fill="#081115">
  <path d="M641.70 844.60 c19.61 -5.24 28.74 -12.06 35.20 -26.06 4.38 -9.50 4.26 -17.90 -0.61 -28.25 -15.83 -33.74 -64.43 -52.13 -196.44 -74.41 l-16.44 -2.80 -0.37 -4.38 c-0.24 -2.56 0.24 -4.87 1.22 -5.60 1.46 -1.22 48.23 -10.72 78.92 -16.20 80.26 -14.13 116.43 -28.13 130.68 -50.79 4.75 -7.55 7.31 -17.66 6.33 -24.97 -1.58 -10.84 -9.50 -24.60 -21.19 -36.41 -5.72 -5.72 -13.64 -12.54 -17.54 -15.10 -6.82 -4.51 -7.06 -4.87 -6.70 -9.50 0.37 -4.63 0.73 -4.99 9.26 -9.50 19.85 -10.35 30.57 -21.56 34.83 -36.54 1.83 -5.97 1.83 -7.31 0.12 -13.88 -2.44 -9.13 -7.06 -16.32 -16.08 -25.09 -15.47 -15.10 -38.73 -28.01 -99.62 -55.29 -9.99 -4.51 -25.45 -11.69 -34.47 -16.08 l-16.20 -8.04 0.37 -4.38 0.37 -4.38 26.18 -0.85 c88.54 -3.04 123.13 -12.54 137.01 -37.75 3.17 -5.48 3.65 -7.79 3.65 -15.59 0 -7.79 -0.49 -10.11 -3.53 -15.59 -6.94 -12.42 -19.73 -20.83 -41.04 -27.16 -7.19 -2.07 -13.27 -2.80 -30.57 -3.17 -12.54 -0.37 -25.45 -0.12 -31.06 0.73 -23.75 3.29 -27.77 4.02 -36.66 6.70 -34.10 10.23 -58.09 26.18 -66.98 44.70 -4.87 9.99 -5.85 16.93 -3.41 24.84 1.10 3.41 1.95 8.16 1.95 10.72 0 3.90 -0.37 4.51 -2.68 4.51 -5.12 0 -24.72 4.75 -32.15 7.67 -15.47 6.21 -23.87 11.08 -31.42 18.39 -19.85 19.36 -19 40.07 2.44 61.14 20.70 20.46 52.37 35.93 155.52 76 l22.90 8.89 -0.37 4.26 -0.37 4.26 -23.87 5.24 c-13.15 2.80 -24.84 5.72 -26.18 6.33 -3.04 1.71 -12.18 3.78 -22.77 5.12 -10.72 1.34 -56.02 11.69 -77.09 17.66 -13.52 3.78 -23.87 7.67 -31.18 11.69 -1.22 0.61 -3.65 1.10 -5.48 1.10 -1.95 0 -8.89 2.68 -15.59 6.09 -36.17 18.02 -51.76 42.75 -40.80 64.67 8.28 16.44 24.60 28.50 52.98 38.97 11.57 4.14 12.18 4.63 12.54 8.16 0.24 2.68 -0.73 5.12 -3.78 9.26 -12.91 16.81 -10.11 31.91 9.38 51.27 35.08 34.83 115.09 65.40 191.33 72.95 10.60 1.10 28.25 -0.49 39.46 -3.53z m181.59 1.10 c58.09 -8.65 116.19 -29.84 154.67 -56.51 18.51 -12.67 32.88 -32.40 32.88 -44.94 0 -6.09 -3.17 -14.13 -8.04 -20.46 -3.17 -4.14 -3.90 -10.23 -1.34 -12.30 0.73 -0.61 2.80 -1.58 4.51 -1.95 3.65 -1.10 4.63 -1.46 20.10 -8.16 14.37 -6.33 24.24 -13.27 31.06 -21.92 13.64 -17.29 14.49 -31.54 2.56 -48.59 -6.82 -9.86 -18.15 -18.51 -36.05 -27.40 -24.11 -12.06 -53.34 -20.83 -110.83 -33.49 -15.35 -3.29 -42.14 -9.26 -59.31 -13.03 l-31.42 -6.94 0 -3.90 c0 -4.75 0.61 -5.24 12.79 -9.99 112.05 -43.36 144.68 -59.07 164.78 -79.89 14.98 -15.35 19.24 -29.59 13.52 -44.82 -3.41 -9.26 -13.52 -20.46 -24.11 -26.67 -9.38 -5.60 -30.33 -12.67 -43.60 -14.74 l-10.11 -1.46 0 -4.38 c0 -2.44 0.85 -7.06 1.95 -10.23 7.43 -21.56 -15.95 -50.05 -52.49 -64.18 -21.19 -8.28 -53.95 -14.49 -75.87 -14.49 -29.35 0 -59.68 9.13 -73.44 21.92 -16.32 15.35 -16.32 36.41 0.24 51.64 18.15 16.81 51.64 24.24 122.28 26.92 10.11 0.37 21.68 0.97 25.94 1.34 l7.55 0.73 0 3.90 c0 3.90 -0.49 4.26 -13.03 10.72 -7.31 3.78 -25.45 12.30 -40.56 19 -38.97 17.29 -50.66 22.90 -51.64 24.48 -0.49 0.73 -1.71 1.34 -2.56 1.34 -2.80 0 -27.52 15.10 -36.66 22.41 -25.82 20.58 -29.84 43.23 -11.20 63.57 5.72 6.21 18.63 15.22 28.74 19.85 5.72 2.68 6.33 3.41 6.33 6.82 0 3.41 -0.97 4.51 -8.77 9.86 -18.02 12.18 -32.64 30.20 -37.15 45.43 -5.72 19.73 6.21 40.07 30.81 52.73 24.11 12.42 50.66 19.24 128.97 33.25 23.14 4.14 45.67 8.89 55.78 11.57 4.14 1.22 4.51 1.71 4.51 5.48 0 2.31 -0.49 4.26 -1.10 4.26 -2.19 0 -72.95 13.40 -93.66 17.66 -11.57 2.44 -29.72 6.82 -40.19 9.86 -46.40 13.27 -70.39 27.52 -81.35 48.23 -4.02 7.79 -4.63 9.86 -4.63 17.42 -0.12 33 39.58 49.08 99.14 40.07z"/>
  <path d="M584.58 833.40 c-10.47 -1.22 -47.01 -9.13 -60.29 -13.15 -57.24 -17.29 -106.08 -44.57 -115.46 -64.18 -2.56 -5.48 -2.68 -15.47 -0.12 -21.43 2.19 -5.36 8.16 -11.81 13.15 -14.25 5.12 -2.56 9.62 -2.31 26.55 1.83 8.28 1.95 31.66 6.58 52.13 10.35 108.51 19.85 148.83 34.10 161.98 57 3.17 5.48 3.65 7.55 3.65 15.47 0 11.33 -2.31 16.20 -10.11 21.56 -9.01 6.09 -18.88 7.67 -44.94 7.43 -12.30 0 -24.24 -0.37 -26.55 -0.61z"/>
  <path d="M400.68 696.75 c-25.58 -9.01 -39.22 -16.93 -46.64 -27.04 -3.41 -4.51 -3.90 -6.45 -4.38 -14.13 -0.37 -7.67 0 -9.86 2.80 -15.47 9.38 -19.24 41.16 -34.22 104.62 -49.57 9.01 -2.19 27.40 -6.21 82.45 -18.27 12.42 -2.68 31.91 -7.31 43.36 -10.35 27.52 -7.06 28.86 -7.06 43.11 1.34 25.94 15.35 38.97 30.57 41.04 47.98 2.31 19.85 -11.33 33.49 -44.09 43.97 -15.35 4.87 -46.16 11.81 -84.64 18.88 -33 6.09 -69.05 14.01 -82.21 17.78 -4.63 1.46 -12.54 4.38 -17.54 6.70 -12.42 5.72 -17.17 5.48 -37.88 -1.83z"/>
  <path d="M596.15 534.65 c-5.36 -2.56 -26.43 -11.33 -46.89 -19.49 -78.92 -31.42 -100.72 -41.16 -119.84 -53.59 -11.45 -7.55 -22.17 -17.29 -25.09 -23.14 -4.99 -9.74 -4.38 -22.17 1.34 -30.81 3.29 -5.12 14.01 -13.03 17.42 -13.03 0.97 0 2.31 -0.85 3.17 -1.83 3.29 -3.90 29.59 -10.23 51.15 -12.30 7.92 -0.73 7.92 -0.61 14.61 4.38 15.10 11.45 33.98 21.31 79.53 41.53 60.04 26.67 85.50 42.50 92.56 57.36 2.68 5.72 2.80 19.24 0.12 24.72 -2.31 5.12 -11.45 13.64 -18.88 18.02 -9.99 5.85 -29.11 13.03 -34.47 12.91 -3.04 0 -8.65 -1.83 -14.74 -4.75z"/>
  <path d="M482.04 360.25 c-2.07 -4.14 -2.68 -7.31 -2.80 -14.98 0 -8.53 0.49 -10.47 3.41 -15.47 9.13 -15.47 34.59 -28.74 70.27 -36.29 15.71 -3.41 53.22 -4.75 69.91 -2.56 19 2.56 35.56 9.50 41.41 17.54 3.78 5.12 4.26 19.49 0.85 26.18 -7.19 14.01 -32.40 21.43 -85.62 25.09 -38.49 2.80 -85.01 5.60 -90.12 5.60 -4.14 0 -4.87 -0.49 -7.31 -5.12z"/>
  <path d="M762.15 832.42 c-17.78 -4.51 -25.33 -12.18 -25.33 -25.94 0 -12.30 4.75 -20.83 16.32 -29.35 22.77 -16.81 60.77 -27.89 157.47 -45.79 19.97 -3.78 41.90 -8.16 48.84 -9.74 18.27 -4.38 20.58 -4.14 28.01 2.44 7.79 7.06 9.99 11.81 9.99 21.56 0 6.45 -0.61 8.77 -3.41 13.27 -17.66 27.52 -86.23 58.58 -158.93 71.98 -18.02 3.29 -62.36 4.26 -72.95 1.58z"/>
  <path d="M970.65 701.01 c-16.68 -8.65 -41.90 -15.47 -91.34 -24.48 -71.61 -13.15 -88.78 -17.05 -108.76 -24.97 -14.86 -5.85 -24.48 -12.18 -29.47 -19.24 -3.17 -4.75 -3.65 -6.45 -4.14 -15.59 -0.37 -9.26 0 -10.84 3.29 -18.02 6.09 -12.91 18.76 -24.72 40.07 -37.02 10.84 -6.33 16.20 -6.58 33.74 -1.58 15.59 4.51 50.05 12.54 94.39 22.04 38.61 8.28 50.54 11.33 74.29 18.51 39.46 11.81 62.60 24.84 69.42 39.09 3.29 6.94 3.41 20.10 0.24 27.04 -3.04 6.82 -12.79 15.47 -23.38 20.83 -10.84 5.48 -43.72 16.32 -49.08 16.32 -2.07 -0.12 -6.21 -1.34 -9.26 -2.92z"/>
  <path d="M777.01 535.26 c-16.44 -6.82 -23.14 -10.60 -29.96 -16.68 -7.92 -7.31 -10.23 -12.18 -10.23 -21.31 0 -18.15 13.03 -30.33 54.68 -51.39 10.47 -5.24 28.01 -13.52 39.09 -18.39 34.83 -15.35 63.57 -29.72 75.87 -38.12 l11.94 -8.16 8.77 0 c15.47 0 37.63 4.87 52.73 11.57 8.04 3.53 17.17 11.94 20.10 18.27 3.29 7.19 3.04 19.12 -0.61 26.79 -4.51 9.86 -19.49 22.29 -39.09 32.76 -3.29 1.83 -8.04 4.26 -10.35 5.60 -6.45 3.53 -31.30 13.76 -80.50 33.37 -24.36 9.62 -50.66 20.34 -58.34 23.75 -16.81 7.55 -20.10 7.67 -34.10 1.95z"/>
  <path d="M904.28 364.76 c-0.61 -0.24 -17.90 -1.34 -38.36 -2.31 -20.46 -1.10 -43.97 -2.56 -52.37 -3.29 -43.36 -3.65 -68.44 -11.81 -75.02 -24.48 -2.31 -4.51 -2.19 -19.61 0.12 -24.11 3.53 -6.94 14.74 -13.27 30.20 -17.29 8.77 -2.31 13.40 -2.68 39.22 -2.68 22.65 -0.12 31.66 0.37 40.19 1.95 36.54 6.94 65.64 21.92 73.93 38 3.65 7.06 3.78 22.53 0.24 29.47 -2.44 4.63 -2.68 4.75 -9.74 4.99 -3.90 0.12 -7.67 0 -8.40 -0.24z"/>
 </g>
 <g fill="#4de8f3">
  <path d="M401.54 460.12 c-22.53 -22.17 -23.51 -48.23 -2.56 -68.69 7.55 -7.31 15.95 -12.18 31.42 -18.39 7.43 -2.92 27.04 -7.67 32.15 -7.67 3.17 0 3.17 0.24 0.73 -8.28 -1.46 -4.87 -1.83 -9.26 -1.34 -15.35 2.19 -26.31 27.65 -47.86 71.73 -61.14 8.89 -2.68 12.91 -3.41 36.66 -6.70 5.60 -0.85 19.61 -1.10 34.71 -0.73 21.31 0.37 26.55 0.97 34.22 3.17 21.43 6.33 34.10 14.74 41.04 27.16 3.29 5.97 3.53 7.43 3.53 19.24 0 11.94 -0.24 13.27 -3.65 19.24 -13.88 25.09 -48.96 34.83 -134.94 37.51 -15.22 0.49 -28.01 1.22 -28.25 1.71 -0.73 1.22 23.63 13.15 56.63 28.01 47.86 21.43 80.01 38.73 78.55 42.26 -0.37 0.97 -0.61 2.31 -0.61 2.92 0 0.61 -0.85 1.10 -1.83 1.10 -1.22 0 -1.83 1.22 -1.83 3.78 0 7.31 -6.82 9.62 -12.67 4.14 -1.83 -1.71 -3.78 -3.04 -4.38 -3.04 -0.61 0 -4.02 -1.71 -7.55 -3.78 -7.67 -4.63 -26.79 -13.76 -55.78 -26.67 -45.43 -20.22 -63.94 -29.96 -79.04 -41.29 -4.75 -3.53 -7.31 -4.75 -9.74 -4.38 -1.71 0.24 -8.89 1.46 -15.95 2.56 -14.61 2.19 -30.69 6.94 -32.88 9.62 -0.85 0.97 -2.19 1.83 -3.17 1.83 -3.41 0 -14.13 8.04 -17.54 13.15 -7.55 11.33 -4.87 22.41 8.40 34.71 5.36 4.87 7.43 7.67 7.43 9.86 0 2.56 -0.61 3.17 -3.04 3.17 -2.31 0 -3.04 0.61 -3.04 2.80 0 3.78 -2.19 5.72 -6.33 5.72 -2.56 0 -5.36 -1.95 -11.08 -7.55z m136.77 -101.45 c59.92 -3.53 78.07 -5.60 97.43 -11.20 19.24 -5.48 28.99 -14.98 27.65 -26.92 -0.73 -6.94 -3.65 -10.84 -11.94 -15.83 -14.13 -8.53 -32.88 -11.81 -62.60 -10.84 -37.15 1.10 -71.73 11.57 -91.58 27.65 -13.76 11.08 -17.54 23.02 -11.45 35.20 l2.80 5.24 9.26 -0.73 c5.12 -0.37 23.38 -1.58 40.43 -2.56z"/>
  <path d="M997.45 459.26 c0 -0.61 -1.46 -1.34 -3.29 -1.58 -2.31 -0.24 -3.53 -1.22 -4.02 -3.41 -0.49 -2.07 -0.97 -2.56 -1.71 -1.46 -0.73 1.34 -9.26 2.19 -9.26 0.97 0 -0.37 3.04 -3.53 6.82 -7.06 15.71 -14.74 16.44 -29.23 2.44 -42.14 -8.77 -8.04 -24.36 -14.13 -45.43 -17.90 -18.27 -3.17 -19.24 -2.92 -32.88 6.33 -12.67 8.65 -38.97 21.80 -75.87 38.12 -12.42 5.48 -30.45 14.01 -40.19 19 -14.98 7.55 -17.90 8.65 -19 7.19 -0.73 -0.97 -2.80 -1.83 -4.51 -1.83 -3.29 0 -4.51 -1.95 -4.51 -7.31 0 -1.95 -0.73 -3.78 -1.46 -4.02 -2.07 -0.85 2.07 -4.26 9.62 -7.92 3.29 -1.58 6.70 -3.41 7.67 -4.02 3.78 -2.44 25.94 -12.67 52.37 -24.48 28.13 -12.54 54.07 -25.33 53.10 -26.18 -0.37 -0.37 -16.08 -1.34 -35.08 -2.31 -76.73 -3.78 -104.98 -10.60 -123.01 -29.35 -7.06 -7.19 -9.99 -14.98 -9.99 -26.55 0 -12.42 3.90 -21.80 12.54 -29.84 31.79 -29.84 123.49 -28.74 176.11 1.95 26.67 15.71 40.07 41.04 32.88 62.60 -1.10 3.41 -1.83 6.33 -1.71 6.58 0.24 0.12 4.87 0.97 10.23 1.83 54.44 8.77 82.33 41.53 66.01 77.34 -3.90 8.53 -11.20 16.56 -14.98 16.56 -1.58 0 -2.92 -0.49 -2.92 -1.10z m-78.92 -102.67 c3.17 -6.09 3.17 -16.32 -0.12 -22.53 -8.04 -15.95 -37.51 -31.06 -73.80 -37.88 -8.28 -1.58 -17.29 -2.07 -36.54 -1.95 -21.92 0 -27.04 0.37 -35.56 2.68 -21.68 5.60 -32.03 13.88 -32.03 25.82 0 8.77 4.38 14.37 15.47 19.97 17.90 8.89 42.63 12.42 113.63 16.08 20.46 0.97 37.75 2.07 38.36 2.31 0.73 0.24 2.80 0.37 4.75 0.24 2.80 -0.24 4.14 -1.22 5.85 -4.75z"/>
 </g>
 <g fill="#66f396">
  <path d="M655.46 788.09 c-2.07 -2.56 -7.67 -7.31 -12.30 -10.35 -22.53 -14.98 -60.89 -25.94 -146.27 -41.53 -20.46 -3.78 -43.97 -8.40 -52.25 -10.47 -14.13 -3.29 -15.47 -3.41 -19.12 -1.71 -5.12 2.44 -12.06 10.23 -13.88 15.71 -0.97 3.04 -2.19 4.38 -3.78 4.38 -1.22 0 -2.31 -0.85 -2.31 -1.83 0 -1.10 -1.10 -1.83 -2.92 -1.83 -3.78 0 -10.23 -3.65 -11.20 -6.33 -0.73 -2.44 2.92 -9.99 7.43 -15.47 l3.29 -3.78 -2.92 -1.10 c-1.58 -0.49 -6.70 -2.44 -11.57 -4.14 -25.58 -9.26 -43.11 -22.29 -51.64 -38.61 -2.44 -4.75 -2.92 -7.19 -2.92 -17.78 0 -11.20 0.24 -12.79 3.65 -19.49 2.68 -5.12 4.38 -7.19 6.09 -7.19 2.07 0 2.56 0.97 2.80 5.72 l0.37 5.72 6.09 -0.73 c6.82 -0.85 6.94 -0.49 3.41 7.55 -6.33 14.37 1.95 26.92 25.94 39.09 8.65 4.38 38.73 15.10 42.38 15.10 1.10 0 6.09 -1.83 11.08 -4.14 4.99 -2.31 12.91 -5.24 17.54 -6.70 13.15 -3.78 49.20 -11.69 82.21 -17.78 38.49 -7.06 69.30 -14.01 84.64 -18.88 25.70 -8.28 40.19 -18.76 43.23 -31.66 1.58 -6.70 4.26 -8.04 7.31 -3.53 0.97 1.46 2.56 3.29 3.41 4.26 0.73 0.85 1.46 1.83 1.46 2.31 0 1.71 3.65 4.26 5.97 4.26 2.19 0 2.31 0.37 1.10 4.02 -9.50 27.52 -46.16 43.72 -134.94 59.31 -35.44 6.21 -77.46 15.10 -79.04 16.56 -2.31 2.19 -2.31 2.19 20.58 5.97 102.30 17.17 153.33 32.88 177.69 54.93 4.51 4.02 4.99 4.99 4.99 10.35 0 4.14 -0.85 7.31 -2.68 10.23 -3.90 5.85 -7.92 5.72 -12.91 -0.49z"/>
  <path d="M758.74 773.96 c0 -1.10 -1.34 -2.56 -3.04 -3.29 -2.56 -1.10 -3.04 -2.19 -3.04 -6.70 0 -3.78 0.49 -5.24 1.71 -5.24 0.97 0 2.92 -1.34 4.26 -3.17 1.46 -1.95 7.19 -4.99 15.59 -8.40 26.67 -10.84 62.48 -19.49 135.55 -32.88 17.05 -3.17 31.30 -5.85 31.42 -6.09 1.22 -1.10 -28.62 -7.79 -60.04 -13.40 -78.31 -14.01 -104.86 -20.83 -128.97 -33.25 -13.40 -6.82 -23.75 -16.56 -28.50 -26.67 -2.92 -6.33 -3.29 -8.40 -3.29 -19.85 0 -10.60 0.49 -13.76 2.68 -18.51 1.58 -3.65 3.41 -5.85 4.75 -5.85 1.71 0 1.95 0.97 1.34 7.31 l-0.61 7.31 6.21 0 6.33 0 0 9.01 c0 8.04 0.37 9.62 3.65 14.37 4.99 7.06 14.61 13.40 29.47 19.24 19.97 7.92 37.15 11.81 108.76 24.97 49.32 9.01 74.05 15.59 91.58 24.48 l5.72 2.92 18.02 -5.97 c21.92 -7.06 33.98 -13.03 42.14 -20.58 16.93 -15.83 13.40 -33 -9.62 -47.98 -8.89 -5.72 -9.99 -8.28 -3.53 -8.28 4.75 0 9.86 2.19 16.08 7.06 2.56 1.95 4.75 2.68 6.09 2.07 1.83 -0.73 1.10 -1.71 -4.14 -6.58 -5.24 -4.63 -6.45 -6.58 -6.45 -9.62 0 -2.19 0.49 -3.90 1.10 -3.90 0.49 0 4.63 2.68 9.01 6.09 17.54 13.27 25.82 31.06 22.65 48.47 -3.41 18.39 -17.66 33.37 -41.90 43.97 -15.47 6.70 -16.44 7.06 -20.10 8.16 -5.72 1.46 -6.33 2.80 -3.04 7.06 8.77 11.45 10.60 26.79 4.75 39.82 -2.56 5.60 -3.90 7.19 -5.85 7.19 -1.46 0 -3.29 -0.61 -4.14 -1.46 -1.10 -1.10 -1.46 -1.10 -1.46 0 0 2.31 -8.16 1.83 -9.01 -0.49 -1.58 -4.02 -0.73 -8.77 1.83 -10.35 2.31 -1.58 2.44 -2.19 1.22 -9.50 -1.34 -8.53 -4.51 -13.40 -12.54 -19.97 l-4.38 -3.53 -13.27 3.17 c-7.19 1.71 -29.47 6.09 -49.45 9.86 -80.50 14.86 -118.50 24.72 -142.37 36.66 -8.89 4.51 -13.15 5.24 -13.15 2.31z"/>
 </g>
 <g fill="#5decb3">
  <path d="M354.53 642.92 c-0.12 -1.83 -0.73 -1.83 -5.12 -0.85 -6.21 1.58 -7.67 0.24 -7.79 -6.70 -0.12 -3.41 -0.61 -4.99 -1.71 -4.75 -2.56 0.49 0.97 -4.63 7.79 -11.57 10.84 -10.72 37.15 -25.94 44.94 -25.94 1.83 0 4.14 -0.49 5.36 -1.10 7.31 -4.02 17.66 -7.92 31.18 -11.69 21.07 -5.97 66.37 -16.32 77.09 -17.66 10.35 -1.34 19.12 -3.29 24.11 -5.48 2.07 -0.85 13.52 -3.65 25.58 -6.21 12.06 -2.44 22.41 -4.87 22.90 -5.36 0.49 -0.49 -3.78 -2.68 -9.50 -4.87 -13.27 -5.12 -13.64 -7.31 -1.34 -7.31 8.04 0 9.13 -0.24 11.20 -3.04 1.22 -1.71 3.17 -3.04 4.38 -3.04 1.10 0 2.19 -0.61 2.44 -1.34 0.24 -0.85 5.36 0.97 12.79 4.38 l12.42 5.85 12.91 -5.24 c13.03 -5.24 24.84 -12.06 29.11 -16.81 3.53 -4.02 5.60 -3.41 5.60 1.46 0 2.31 -0.49 4.63 -1.22 4.99 -0.61 0.37 -1.22 1.71 -1.22 2.92 0 1.58 1.46 2.44 5.72 3.29 3.04 0.61 5.85 1.71 6.09 2.44 0.61 1.83 -9.38 9.13 -20.46 14.98 -4.87 2.56 -9.01 5.12 -9.26 5.85 -0.24 0.61 2.68 3.29 6.58 5.85 3.90 2.56 11.81 9.38 17.54 15.10 18.63 18.76 25.45 38.49 19.97 56.75 -1.34 4.38 -2.44 6.45 -2.80 5.12 -0.37 -1.58 -1.34 -2.07 -3.65 -1.83 -2.07 0.24 -3.17 -0.24 -2.92 -1.22 0.12 -0.73 -0.24 -1.46 -0.97 -1.46 -0.61 0 -1.22 0.73 -1.22 1.58 0 0.97 -0.37 0.85 -1.22 -0.37 -0.73 -1.10 -0.61 -2.07 0.24 -2.56 0.97 -0.61 0.73 -1.46 -0.61 -2.92 -1.22 -1.10 -2.07 -2.56 -2.07 -3.17 0 -0.73 -0.49 -0.97 -1.10 -0.61 -0.61 0.37 -1.95 -3.04 -3.17 -7.55 -2.56 -10.84 -7.55 -19.36 -16.08 -27.65 -7.06 -7.06 -20.10 -16.20 -31.30 -22.04 l-6.45 -3.41 -21.80 5.72 c-12.06 3.04 -31.91 7.79 -44.33 10.47 -80.01 17.42 -82.57 18.02 -106.20 24.36 -13.27 3.53 -34.34 10.72 -45.43 15.35 -13.15 5.60 -29.47 17.78 -34.95 26.18 -1.58 2.19 -2.07 2.56 -2.07 1.10z"/>
  <path d="M1043.24 631.23 c-5.48 -4.99 -13.88 -10.11 -16.20 -10.11 -0.49 0 0.37 1.10 2.07 2.44 1.71 1.34 -1.10 0.37 -6.09 -2.31 -22.90 -12.06 -56.14 -22.04 -118.26 -35.44 -44.33 -9.50 -78.80 -17.54 -94.39 -22.04 -6.82 -1.95 -13.64 -3.53 -15.10 -3.53 -3.29 0 -17.17 8.04 -28.62 16.44 -15.95 11.81 -24.48 23.87 -26.18 37.15 l-0.85 6.70 -0.24 -6.09 c-0.12 -4.63 -0.49 -5.60 -1.46 -4.26 -0.97 1.34 -1.46 1.46 -1.95 0.37 -0.73 -2.07 -2.56 -1.95 -4.87 0.24 -1.71 1.71 -1.95 1.71 -3.41 -0.24 -1.34 -1.83 -1.83 -1.83 -3.53 -0.49 -1.71 1.46 -1.83 1.22 -1.22 -2.44 0.37 -2.31 1.22 -5.72 1.83 -7.67 1.46 -4.75 1.34 -6.58 -0.24 -4.38 -2.68 3.78 0.12 -2.92 4.14 -9.62 5.12 -8.65 18.76 -22.29 29.84 -29.84 l8.77 -6.09 -9.38 -4.87 c-11.33 -5.97 -16.44 -9.38 -22.53 -15.22 -5.85 -5.36 -5.97 -7.43 -0.37 -7.43 2.31 0 6.33 -1.10 8.77 -2.44 6.09 -3.29 8.16 -3.04 15.10 1.22 5.36 3.29 24.97 12.06 31.30 14.01 2.07 0.61 6.82 -0.97 17.29 -5.60 15.47 -6.70 17.66 -6.82 18.51 -0.73 0.24 2.19 1.46 2.80 6.82 3.65 5.97 0.97 6.45 1.34 6.09 4.14 -0.24 2.44 -1.58 3.53 -5.48 5.12 -11.33 4.38 -18.27 2.31 83.06 24.48 33.86 7.43 60.53 14.37 80.26 20.83 15.83 5.12 44.09 18.63 50.05 23.87 3.53 3.04 3.53 3.04 0.37 1.10 -5.85 -3.41 -4.99 -2.19 4.14 6.58 9.86 9.50 9.86 11.45 0.12 12.06 -0.73 0.12 -1.10 1.10 -0.73 2.44 1.10 4.26 -1.46 3.53 -7.43 -1.95z"/>
 </g>
 <g fill="#6bf981">
  <path d="M598.59 851.79 c-48.72 -4.87 -99.38 -18.88 -140.06 -38.85 -23.14 -11.33 -38.73 -21.68 -51.27 -34.10 -12.54 -12.54 -16.81 -20.58 -17.29 -33.61 -0.49 -9.26 1.83 -18.15 4.51 -18.15 0.73 0 0.97 0.73 0.73 1.58 -0.73 1.83 0.37 3.41 4.51 5.97 2.68 1.83 3.41 1.83 4.63 0.37 1.95 -2.44 4.87 -0.85 4.87 2.56 0 1.58 0.49 2.92 0.97 2.92 0.61 0 0.85 1.58 0.49 3.53 -1.71 11.94 19.85 31.06 54.44 48.23 28.01 14.01 63.09 25.82 98.16 33 17.66 3.78 23.87 4.38 42.75 4.99 26.18 0.85 36.90 -0.85 46.28 -7.31 21.07 -14.25 9.01 -39.46 -25.94 -54.32 -7.55 -3.29 -9.50 -5.72 -2.92 -3.78 9.13 2.56 24.84 11.94 33.49 19.97 5.36 4.87 6.21 5.24 5.12 2.44 -0.37 -0.97 -0.24 -1.58 0.37 -1.22 0.61 0.37 1.95 -0.61 3.04 -2.31 1.10 -1.71 1.46 -3.04 0.85 -3.04 -0.61 0 -1.34 -0.85 -1.71 -1.71 -0.49 -1.22 -0.12 -1.58 1.10 -1.10 1.10 0.37 1.71 -0.12 1.71 -1.58 0 -1.34 -3.41 -5.48 -7.55 -9.38 -5.85 -5.36 -6.94 -6.82 -4.63 -6.21 7.43 1.95 19.73 14.98 25.21 26.79 2.80 5.97 3.29 8.89 3.41 17.54 0 8.65 -0.49 11.45 -3.17 17.17 -6.58 14.01 -15.71 20.70 -35.32 26.06 -11.33 3.17 -33.98 4.87 -46.77 3.53z"/>
  <path d="M773.60 851.30 c-26.67 -3.41 -41.65 -11.57 -49.81 -27.04 -3.04 -5.85 -3.41 -7.67 -3.41 -18.63 0 -11.81 0.12 -12.42 4.75 -21.07 3.04 -5.60 7.31 -11.20 11.94 -15.47 10.84 -10.11 30.08 -20.70 39.70 -21.92 3.90 -0.49 4.14 -0.37 1.95 1.10 -1.22 0.85 -4.38 2.31 -6.82 3.04 -4.38 1.46 -12.67 9.99 -11.20 11.45 0.37 0.37 -0.37 0.37 -1.83 0 -4.02 -0.97 -3.17 2.31 1.22 4.75 2.07 1.22 3.29 2.68 2.92 3.41 -0.97 1.58 1.34 1.58 4.38 0 1.46 -0.85 2.31 -0.85 2.31 -0.12 0 0.61 -3.90 3.78 -8.53 6.94 -9.86 6.58 -15.22 12.18 -18.39 19.24 -6.09 13.52 1.34 25.21 19.61 30.93 9.74 3.04 48.11 2.92 65.77 -0.12 74.29 -13.03 146.51 -45.67 162.83 -73.68 2.68 -4.51 3.04 -6.21 2.31 -11.94 -0.85 -6.94 0.97 -9.26 2.31 -2.92 0.49 2.07 1.58 5.36 2.56 7.31 1.10 1.95 1.58 4.14 1.10 4.87 -0.37 0.61 -0.24 1.22 0.49 1.22 0.73 0 0.37 1.58 -0.85 3.53 -1.10 1.95 -2.44 3.29 -2.92 3.04 -1.46 -0.85 -2.07 1.34 -0.85 3.17 0.73 1.22 1.10 1.34 1.10 0.37 0 -0.85 0.85 -1.58 1.95 -1.58 0.97 0 1.58 -0.49 1.22 -1.10 -0.37 -0.61 0.49 -1.34 1.95 -1.71 1.46 -0.49 3.04 -0.12 3.53 0.61 0.49 0.85 0.97 0.73 1.34 -0.37 0.37 -0.97 0.97 -1.34 1.46 -0.97 0.49 0.49 0 1.71 -1.10 2.68 -1.22 1.22 -1.46 2.19 -0.61 2.68 0.73 0.49 1.95 -0.85 2.80 -2.92 0.73 -2.07 1.83 -3.78 2.31 -3.78 3.90 0 -4.26 13.52 -14.01 23.38 -25.70 26.18 -85.86 53.10 -146.15 65.52 -29.59 5.97 -59.07 8.40 -77.34 6.09z"/>
 </g>
 <g fill="#57e9cf">
  <path d="M835.47 539.16 c0 -1.22 -0.85 -1.58 -2.44 -1.22 -1.34 0.37 -2.44 0 -2.44 -0.73 0 -0.73 -1.58 -1.34 -3.65 -1.34 -2.44 0 -4.02 -0.85 -4.99 -2.68 -0.85 -1.58 -1.34 -2.80 -1.22 -2.80 0.12 0 -0.12 -0.97 -0.49 -2.07 -0.49 -1.22 -1.58 -1.83 -2.80 -1.34 -1.58 0.49 -1.71 0.37 -0.73 -0.73 0.61 -0.73 22.04 -9.62 47.50 -19.73 50.91 -20.22 75.63 -30.45 82.09 -33.98 2.31 -1.34 7.06 -3.78 10.35 -5.60 10.72 -5.60 26.67 -16.56 32.40 -22.04 l5.60 -5.48 -0.12 7.19 c-0.12 7.55 0.12 7.79 6.58 5.85 2.44 -0.73 2.80 -0.61 1.58 0.73 -2.68 2.68 -1.71 3.65 1.34 1.71 5.97 -3.90 4.02 0.37 -3.29 7.55 -19.12 18.76 -54.07 35.56 -156.74 75.27 -3.04 1.10 -6.21 2.31 -6.94 2.68 -0.85 0.37 -1.58 -0.24 -1.58 -1.22z"/>
  <path d="M556.33 535.62 c-99.01 -38.61 -130.07 -53.34 -148.95 -70.52 -7.55 -6.94 -8.04 -10.60 -0.61 -4.63 4.02 3.29 5.12 3.65 6.70 2.31 2.56 -2.07 2.31 -6.09 -0.24 -6.09 -1.71 0 -1.83 -0.24 -0.49 -1.10 0.85 -0.61 3.29 -0.97 5.12 -0.85 1.95 0.12 3.53 -0.12 3.53 -0.73 0 -0.49 -0.49 -0.97 -1.10 -0.97 -1.10 0 -2.92 -3.65 -2.19 -4.51 0.24 -0.24 5.12 2.68 10.72 6.58 20.58 14.01 41.90 23.75 124.10 56.39 40.19 16.08 42.14 16.93 38.36 17.05 -1.95 0.12 -1.83 0.49 1.22 2.19 l3.65 2.07 -3.41 0.37 c-1.95 0.24 -4.26 -0.24 -5.24 -1.10 -1.46 -1.10 -2.19 -0.85 -4.14 1.34 -1.34 1.58 -2.44 3.17 -2.44 3.65 0 1.71 -19.36 0.61 -24.60 -1.46z"/>
  <path d="M658.87 531.61 c0 -1.46 -0.61 -1.83 -1.95 -1.34 -7.92 3.04 -10.23 1.71 -7.19 -4.14 0.97 -1.95 1.95 -4.02 1.95 -4.51 0 -0.61 0.85 -2.19 1.83 -3.65 0.97 -1.58 1.34 -2.80 0.85 -2.80 -0.49 0 -2.19 1.22 -3.90 2.80 -1.71 1.46 -0.24 -0.49 3.29 -4.26 6.94 -7.67 8.77 -11.20 8.77 -17.66 0 -9.74 -8.65 -20.22 -26.67 -31.79 -7.67 -4.99 -10.60 -7.55 -9.99 -8.65 0.85 -1.22 1.22 -1.22 1.95 -0.12 0.61 0.97 2.56 1.22 5.60 0.73 3.65 -0.61 4.51 -0.37 4.02 0.97 -0.37 0.85 0.24 2.56 1.34 3.65 1.58 1.46 2.31 1.58 3.65 0.37 1.34 -1.22 1.22 -1.58 -0.73 -1.83 -1.22 -0.24 -2.31 -1.34 -2.31 -2.56 0 -3.17 4.02 -6.45 6.70 -5.48 1.71 0.73 2.07 0.49 1.46 -1.10 -2.44 -6.33 11.33 2.68 22.41 14.74 8.04 8.65 11.69 15.47 13.52 25.70 2.31 12.54 -1.34 23.75 -12.06 36.41 -4.38 5.12 -5.85 6.09 -7.19 4.99 -1.34 -1.10 -2.19 -0.97 -3.53 0.12 -1.46 1.22 -1.83 1.10 -1.83 -0.61z"/>
  <path d="M732.68 527.34 c-8.89 -9.62 -12.30 -17.90 -12.30 -30.45 0 -8.16 0.61 -11.57 2.80 -16.32 5.72 -12.54 16.81 -23.75 34.34 -34.59 10.72 -6.70 12.54 -6.94 12.79 -1.46 0.37 7.79 0.24 7.67 4.87 6.94 2.92 -0.49 4.02 -0.24 3.53 0.61 -0.49 0.73 0 1.95 1.10 2.80 1.71 1.22 1.34 1.83 -3.17 4.26 -17.05 9.50 -29.23 19.97 -33.25 28.62 -3.41 7.19 -3.65 11.57 -0.97 17.17 1.95 4.14 14.25 16.32 16.44 16.32 0.61 0 1.10 0.49 1.10 1.10 0 0.49 -1.58 0.97 -3.65 0.85 -1.95 -0.12 -3.65 -0.49 -3.65 -0.97 0 -1.46 -4.87 0.49 -7.79 3.29 -1.71 1.58 -3.29 2.56 -3.53 2.31 -0.37 -0.37 -2.07 -0.85 -4.02 -1.10 l-3.53 -0.61 3.41 2.80 c1.83 1.46 3.29 3.17 3.29 3.65 0 2.07 -2.56 0.37 -7.79 -5.24z"/>
 </g>
</svg>
